HIERARCHY
ROOT Hips
{
	OFFSET 0.000000 100.481300 0.000000
	CHANNELS 6 Xposition Yposition Zposition Xrotation Yrotation Zrotation
	JOINT Spine
	{
		OFFSET -0.279200 12.230698 -2.892100
		CHANNELS 3 Xrotation Yrotation Zrotation
		JOINT Spine1
		{
			OFFSET -0.325700 14.269203 -3.374200
			CHANNELS 3 Xrotation Yrotation Zrotation
			JOINT Spine2
			{
				OFFSET -0.372300 16.307602 -0.352600
				CHANNELS 3 Xrotation Yrotation Zrotation
				JOINT Neck
				{
					OFFSET -0.418800 17.814194 8.416900
					CHANNELS 3 Xrotation Yrotation Zrotation
					JOINT Head
					{
						OFFSET 0.000000 7.031097 3.806800
						CHANNELS 3 Xrotation Yrotation Zrotation
						JOINT HeadTop_End
						{
							OFFSET 0.000000 24.646606 12.978600
							CHANNELS 3 Xrotation Yrotation Zrotation
							End Site
							{
								OFFSET 0.000000 27.854965 0.000000
							}
						}
					}
				}
				JOINT LeftShoulder
				{
					OFFSET 16.952999 14.495407 -7.737500
					CHANNELS 3 Xrotation Yrotation Zrotation
					JOINT LeftArm
					{
						OFFSET 9.308998 -2.777710 0.208600
						CHANNELS 3 Xrotation Yrotation Zrotation
						JOINT LeftForeArm
						{
							OFFSET 29.972298 0.000000 0.000000
							CHANNELS 3 Xrotation Yrotation Zrotation
							JOINT LeftHand
							{
								OFFSET 26.026505 0.000000 0.000000
								CHANNELS 3 Xrotation Yrotation Zrotation
								JOINT LeftHandThumb1
								{
									OFFSET 12.240501 -7.147949 9.207150
									CHANNELS 3 Xrotation Yrotation Zrotation
									JOINT LeftHandThumb2
									{
										OFFSET 4.138618 -2.389435 2.389433
										CHANNELS 3 Xrotation Yrotation Zrotation
										JOINT LeftHandThumb3
										{
											OFFSET 2.726913 -1.574387 1.574386
											CHANNELS 3 Xrotation Yrotation Zrotation
											JOINT LeftHandThumb4
											{
												OFFSET 3.941010 -2.275345 2.275342
												CHANNELS 3 Xrotation Yrotation Zrotation
												End Site
												{
													OFFSET -0.005798 5.087799 0.009903
												}
											}
										}
									}
								}
								JOINT LeftHandIndex1
								{
									OFFSET 24.424698 -1.985611 5.953459
									CHANNELS 3 Xrotation Yrotation Zrotation
									JOINT LeftHandIndex2
									{
										OFFSET 6.426697 0.000000 0.000000
										CHANNELS 3 Xrotation Yrotation Zrotation
										JOINT LeftHandIndex3
										{
											OFFSET 5.337898 0.000000 0.000000
											CHANNELS 3 Xrotation Yrotation Zrotation
											JOINT LeftHandIndex4
											{
												OFFSET 4.409401 0.000000 0.000000
												CHANNELS 3 Xrotation Yrotation Zrotation
												End Site
												{
													OFFSET 0.000000 4.409363 0.014373
												}
											}
										}
									}
								}
								JOINT LeftHandMiddle1
								{
									OFFSET 23.810104 0.000000 0.000000
									CHANNELS 3 Xrotation Yrotation Zrotation
									JOINT LeftHandMiddle2
									{
										OFFSET 7.176498 0.000000 0.000000
										CHANNELS 3 Xrotation Yrotation Zrotation
										JOINT LeftHandMiddle3
										{
											OFFSET 6.774902 0.000000 0.000000
											CHANNELS 3 Xrotation Yrotation Zrotation
											JOINT LeftHandMiddle4
											{
												OFFSET 5.403328 0.000000 0.000000
												CHANNELS 3 Xrotation Yrotation Zrotation
												End Site
												{
													OFFSET -0.027702 5.403244 0.017414
												}
											}
										}
									}
								}
								JOINT LeftHandRing1
								{
									OFFSET 22.908401 -0.839279 -6.020567
									CHANNELS 3 Xrotation Yrotation Zrotation
									JOINT LeftHandRing2
									{
										OFFSET 6.337502 0.000000 0.000000
										CHANNELS 3 Xrotation Yrotation Zrotation
										JOINT LeftHandRing3
										{
											OFFSET 5.779297 0.000000 0.000000
											CHANNELS 3 Xrotation Yrotation Zrotation
											JOINT LeftHandRing4
											{
												OFFSET 4.965698 0.000000 0.000000
												CHANNELS 3 Xrotation Yrotation Zrotation
												End Site
												{
													OFFSET 0.000000 4.965668 0.016186
												}
											}
										}
									}
								}
								JOINT LeftHandPinky1
								{
									OFFSET 20.037003 -1.530319 -10.950146
									CHANNELS 3 Xrotation Yrotation Zrotation
									JOINT LeftHandPinky2
									{
										OFFSET 5.254700 0.000000 0.000000
										CHANNELS 3 Xrotation Yrotation Zrotation
										JOINT LeftHandPinky3
										{
											OFFSET 4.810204 0.000000 0.000000
											CHANNELS 3 Xrotation Yrotation Zrotation
											JOINT LeftHandPinky4
											{
												OFFSET 3.647202 0.000000 0.000000
												CHANNELS 3 Xrotation Yrotation Zrotation
												End Site
												{
													OFFSET 0.000000 3.647186 0.011889
												}
											}
										}
									}
								}
							}
						}
					}
				}
				JOINT RightShoulder
				{
					OFFSET -15.141001 14.495407 -7.737500
					CHANNELS 3 Xrotation Yrotation Zrotation
					JOINT RightArm
					{
						OFFSET -9.308998 -2.777710 0.208500
						CHANNELS 3 Xrotation Yrotation Zrotation
						JOINT RightForeArm
						{
							OFFSET -29.972300 0.000000 0.000000
							CHANNELS 3 Xrotation Yrotation Zrotation
							JOINT RightHand
							{
								OFFSET -26.026505 0.000000 0.000000
								CHANNELS 3 Xrotation Yrotation Zrotation
								JOINT RightHandThumb1
								{
									OFFSET -12.240601 -7.148026 9.207092
									CHANNELS 3 Xrotation Yrotation Zrotation
									JOINT RightHandThumb2
									{
										OFFSET -4.138618 -2.389435 2.389433
										CHANNELS 3 Xrotation Yrotation Zrotation
										JOINT RightHandThumb3
										{
											OFFSET -2.726974 -1.574417 1.574421
											CHANNELS 3 Xrotation Yrotation Zrotation
											JOINT RightHandThumb4
											{
												OFFSET -3.941010 -2.275345 2.275343
												CHANNELS 3 Xrotation Yrotation Zrotation
												End Site
												{
													OFFSET 0.005814 5.087799 0.009927
												}
											}
										}
									}
								}
								JOINT RightHandIndex1
								{
									OFFSET -24.424698 -1.985657 5.953444
									CHANNELS 3 Xrotation Yrotation Zrotation
									JOINT RightHandIndex2
									{
										OFFSET -6.426697 0.000000 0.000000
										CHANNELS 3 Xrotation Yrotation Zrotation
										JOINT RightHandIndex3
										{
											OFFSET -5.337898 0.000000 0.000000
											CHANNELS 3 Xrotation Yrotation Zrotation
											JOINT RightHandIndex4
											{
												OFFSET -4.409401 0.000000 0.000000
												CHANNELS 3 Xrotation Yrotation Zrotation
												End Site
												{
													OFFSET 0.000000 4.409363 0.014408
												}
											}
										}
									}
								}
								JOINT RightHandMiddle1
								{
									OFFSET -23.810097 0.000000 0.000000
									CHANNELS 3 Xrotation Yrotation Zrotation
									JOINT RightHandMiddle2
									{
										OFFSET -7.176498 0.000000 0.000000
										CHANNELS 3 Xrotation Yrotation Zrotation
										JOINT RightHandMiddle3
										{
											OFFSET -6.774902 0.000000 0.000000
											CHANNELS 3 Xrotation Yrotation Zrotation
											JOINT RightHandMiddle4
											{
												OFFSET -5.403328 0.000000 0.000000
												CHANNELS 3 Xrotation Yrotation Zrotation
												End Site
												{
													OFFSET 0.027702 5.403244 0.017457
												}
											}
										}
									}
								}
								JOINT RightHandRing1
								{
									OFFSET -22.908302 -0.839325 -6.020576
									CHANNELS 3 Xrotation Yrotation Zrotation
									JOINT RightHandRing2
									{
										OFFSET -6.337502 0.000000 0.000000
										CHANNELS 3 Xrotation Yrotation Zrotation
										JOINT RightHandRing3
										{
											OFFSET -5.779297 0.000000 0.000000
											CHANNELS 3 Xrotation Yrotation Zrotation
											JOINT RightHandRing4
											{
												OFFSET -4.965698 0.000000 0.000000
												CHANNELS 3 Xrotation Yrotation Zrotation
												End Site
												{
													OFFSET 0.000000 4.965668 0.016226
												}
											}
										}
									}
								}
								JOINT RightHandPinky1
								{
									OFFSET -20.037003 -1.530334 -10.950259
									CHANNELS 3 Xrotation Yrotation Zrotation
									JOINT RightHandPinky2
									{
										OFFSET -5.254700 0.000000 0.000000
										CHANNELS 3 Xrotation Yrotation Zrotation
										JOINT RightHandPinky3
										{
											OFFSET -4.810204 0.000000 0.000000
											CHANNELS 3 Xrotation Yrotation Zrotation
											JOINT RightHandPinky4
											{
												OFFSET -3.647202 0.000000 0.000000
												CHANNELS 3 Xrotation Yrotation Zrotation
												End Site
												{
													OFFSET 0.000000 3.647186 0.011917
												}
											}
										}
									}
								}
							}
						}
					}
				}
			}
		}
	}
	JOINT LeftUpLeg
	{
		OFFSET 15.427100 -6.655098 0.678600
		CHANNELS 3 Xrotation Yrotation Zrotation
		JOINT LeftLeg
		{
			OFFSET 4.081073 -39.591068 13.024000
			CHANNELS 3 Xrotation Yrotation Zrotation
			JOINT LeftFoot
			{
				OFFSET -4.081074 -37.707932 -15.979700
				CHANNELS 3 Xrotation Yrotation Zrotation
				JOINT LeftToeBase
				{
					OFFSET 5.346399 -15.068900 20.645000
					CHANNELS 3 Xrotation Yrotation Zrotation
					JOINT LeftToe_End
					{
						OFFSET 2.754700 0.931300 11.300900
						CHANNELS 3 Xrotation Yrotation Zrotation
						End Site
						{
							OFFSET 0.000000 11.669021 0.000000
						}
					}
				}
			}
		}
	}
	JOINT RightUpLeg
	{
		OFFSET -15.569500 -6.655098 0.678600
		CHANNELS 3 Xrotation Yrotation Zrotation
		JOINT RightLeg
		{
			OFFSET -4.081825 -39.591045 13.023800
			CHANNELS 3 Xrotation Yrotation Zrotation
			JOINT RightFoot
			{
				OFFSET 4.081824 -37.707954 -15.979600
				CHANNELS 3 Xrotation Yrotation Zrotation
				JOINT RightToeBase
				{
					OFFSET -5.346400 -15.068900 20.645000
					CHANNELS 3 Xrotation Yrotation Zrotation
					JOINT RightToe_End
					{
						OFFSET -2.754700 0.931300 11.300900
						CHANNELS 3 Xrotation Yrotation Zrotation
						End Site
						{
							OFFSET 0.000000 11.669021 0.000000
						}
					}
				}
			}
		}
	}
}
MOTION
Frames: 4
Frame Time: 0.033333
21.419327 92.638618 6.320607 9.076800 16.614819 6.080369 -4.559017 1.810543 -2.476467 -0.884872 -2.729938 -0.412946 2.329505 4.388573 1.423969 4.664029 -0.271697 -4.056684 -4.346388 -1.828674 -7.256540 0.000000 -0.000001 0.000000 5.578709 -7.705211 7.891380 -37.003537 40.796669 -29.159444 0.000011 -145.617816 0.000016 -52.850255 -35.738029 -36.169383 18.491279 -0.461442 10.916083 1.284046 32.757615 -3.088950 30.775313 44.584770 -18.270512 -0.000001 -0.000000 -0.000001 6.274512 23.384078 -15.773803 0.047920 1.377638 -5.815102 0.113729 -1.253467 10.363597 -0.000000 -0.000002 0.000000 4.871325 11.263843 -66.693396 5.039804 6.597025 -83.994818 3.235298 5.255513 -62.598779 -0.000001 0.000001 -0.000002 7.546412 11.742091 -78.027494 6.334195 5.459551 -90.884355 4.247714 4.927367 -69.707524 0.000000 0.000001 0.000004 10.118936 18.267331 -88.440937 5.867320 6.064677 -96.201917 4.211340 6.037618 -70.973022 0.000002 -0.000001 -0.000003 3.726461 2.112162 -0.673164 42.578378 32.591276 55.826377 -0.000025 68.572606 0.000022 -29.175798 7.990082 -49.470784 25.336952 -1.095960 -20.144234 0.562998 -26.376623 14.890166 7.420202 13.014716 -1.507350 -0.000003 -0.000003 0.000004 7.483256 -6.870040 36.545405 5.787282 -6.557104 89.986048 1.527385 -4.199780 56.404771 0.000001 -0.000002 -0.000002 0.246984 -7.039326 30.009836 4.295520 -6.454373 76.375339 4.146831 -5.608351 74.012948 -0.000000 -0.000002 -0.000001 9.157338 -12.942085 70.084708 5.635601 -5.495800 83.853440 1.735881 -3.782584 60.323725 0.000002 0.000001 -0.000000 14.840179 -25.717698 81.131125 5.104051 -6.031769 88.577834 0.814324 -4.691540 64.675089 -0.000002 0.000001 -0.000002 -16.522909 5.612900 -11.543430 18.293839 4.992319 -3.592995 -11.170894 2.684956 2.764935 0.560852 -0.000002 -0.000001 0.000000 -0.000001 0.000000 -10.331106 -10.189035 -17.663182 26.243434 -8.281946 -2.453337 -20.474484 -4.225467 15.061279 -6.811722 -0.000000 0.000004 -0.000000 -0.000000 -0.000000 
21.421219 92.620239 6.307743 9.132401 16.707216 6.110932 -4.470873 1.790190 -2.477176 -0.835268 -2.662983 -0.407887 2.335577 4.366820 1.404501 4.640159 -0.347761 -4.134936 -4.510990 -2.393151 -7.299535 -0.000000 -0.000002 0.000000 5.568408 -7.669352 7.710040 -36.231005 47.661091 -30.217450 -0.000016 -148.883753 -0.000008 -65.670343 -35.707765 -29.656620 18.491281 -0.461438 10.916080 1.284062 32.757608 -3.088983 29.802496 43.841591 -17.369968 0.000001 0.000000 0.000001 6.076977 17.279737 -6.416867 0.054281 1.437032 -6.406468 0.102946 -1.203617 9.860679 -0.000002 0.000001 0.000000 4.769355 11.249394 -65.449700 4.917787 6.580585 -82.757823 3.125389 5.201296 -61.366921 0.000000 0.000001 0.000000 7.465990 11.789474 -76.787323 6.211801 5.472105 -89.648500 4.130299 4.895274 -68.475857 -0.000000 0.000002 -0.000001 9.989921 18.262864 -87.178458 5.743470 6.066212 -94.966855 4.092325 6.003706 -69.738554 0.000001 -0.000000 0.000002 3.730151 2.226164 -0.688998 42.518727 32.620328 55.884147 -0.000004 68.502037 -0.000009 -29.213590 8.169350 -49.562926 25.278906 -1.091605 -20.087496 0.562985 -26.376640 14.890176 7.420213 13.014717 -1.507358 -0.000003 -0.000001 -0.000000 7.429817 -6.879385 36.601666 5.787281 -6.557104 89.986048 1.527404 -4.199773 56.404788 0.000002 -0.000003 -0.000002 0.255544 -7.057681 30.071892 4.295452 -6.454367 76.374779 4.146834 -5.608361 74.012838 -0.000001 -0.000001 -0.000001 9.173139 -12.941714 70.149492 5.635677 -5.495805 83.854287 1.735872 -3.782578 60.323630 -0.000001 0.000000 -0.000000 14.863697 -25.719905 81.201073 5.104000 -6.031756 88.577472 0.814303 -4.691531 64.674979 0.000002 0.000001 -0.000001 -16.626671 5.592225 -11.577033 18.322887 4.973950 -3.621694 -11.054455 2.583127 2.636461 0.488253 0.000001 -0.000001 0.000000 0.000002 -0.000000 -10.425219 -10.236408 -17.756137 26.322355 -8.278753 -2.422152 -20.503666 -4.265739 15.068801 -6.825626 -0.000002 -0.000002 0.000000 0.000000 -0.000000 
21.416910 92.607948 6.280517 9.148165 16.779003 6.179517 -4.376495 1.807954 -2.476341 -0.773681 -2.516003 -0.397479 2.352390 4.421983 1.382489 4.644428 -0.549936 -4.212927 -4.652839 -3.571971 -7.482004 0.000000 0.000002 -0.000000 5.553470 -7.723590 7.543164 -35.065576 49.547179 -32.051318 -0.000002 -149.456451 -0.000001 -69.340039 -32.575068 -10.697614 18.491279 -0.461432 10.916075 1.284044 32.757608 -3.088946 28.784149 43.032166 -16.437897 -0.000001 -0.000001 -0.000001 7.698970 11.424000 3.352754 0.061303 1.496758 -7.001677 0.091840 -1.149951 9.320191 -0.000000 0.000002 -0.000000 4.659446 11.231768 -64.114426 4.787230 6.560014 -81.429918 3.008740 5.140477 -60.044596 -0.000000 0.000001 0.000001 7.376782 11.839364 -75.455367 6.080117 5.482647 -88.321552 4.005052 4.858052 -67.153655 -0.000000 0.000000 0.000000 9.851569 18.255053 -85.823171 5.610500 6.064892 -93.640896 3.965408 5.964462 -68.413429 0.000000 -0.000000 -0.000001 3.731941 2.302396 -0.668624 42.474556 32.573278 56.010471 0.000035 68.451712 -0.000056 -29.256381 8.408289 -49.732021 25.209257 -1.087850 -20.025520 0.562994 -26.376642 14.890157 7.420216 13.014736 -1.507353 -0.000002 0.000000 -0.000003 7.366614 -6.896214 36.662048 5.787280 -6.557105 89.986055 1.527399 -4.199780 56.404761 0.000002 -0.000001 -0.000002 0.267973 -7.083059 30.139429 4.295398 -6.454354 76.374253 4.146817 -5.608349 74.012743 -0.000000 -0.000000 -0.000001 9.194052 -12.942765 70.220765 5.635808 -5.495800 83.855701 1.735878 -3.782576 60.323582 -0.000004 -0.000001 -0.000001 14.890856 -25.728390 81.278541 5.103972 -6.031763 88.577124 0.814317 -4.691536 64.674918 -0.000001 0.000000 -0.000002 -16.683131 5.568111 -11.637757 18.328818 4.958252 -3.640985 -10.952910 2.575702 2.503255 0.434616 -0.000008 0.000001 -0.000000 -0.000003 0.000000 -10.514368 -10.260977 -17.862497 26.417493 -8.276684 -2.422634 -20.525034 -4.298105 15.087541 -6.841505 0.000001 0.000002 -0.000000 -0.000000 -0.000000 
21.398897 92.592537 6.246965 9.115610 16.861280 6.263018 -4.273141 1.816899 -2.473134 -0.698479 -2.382497 -0.378908 2.380968 4.461176 1.366630 4.658245 -0.816825 -4.273194 -4.929114 -5.043483 -7.697329 -0.000001 -0.000001 0.000001 5.542535 -7.821733 7.464529 -34.533191 45.573385 -33.060571 0.000010 -148.166816 0.000017 -63.623567 -26.359244 10.994306 18.491289 -0.461436 10.916072 1.284048 32.757611 -3.088956 27.729755 42.159189 -15.485231 0.000004 0.000000 0.000001 8.478176 10.122100 6.772695 0.068901 1.556094 -7.593943 0.080586 -1.092737 8.745255 -0.000001 0.000001 -0.000000 4.542154 11.210572 -62.694860 4.648978 6.534857 -80.018132 2.886307 5.072907 -58.639045 0.000001 0.000000 0.000004 7.278673 11.891130 -74.038615 5.939895 5.490526 -86.910742 3.872881 4.815311 -65.748057 0.000001 -0.000000 -0.000001 9.704726 18.243360 -84.382315 5.469235 6.060138 -92.231179 3.831506 5.919534 -67.004784 -0.000000 0.000001 -0.000001 3.734552 2.343119 -0.681133 42.510414 32.719816 55.936944 -0.000030 68.383028 0.000032 -29.438457 8.703065 -49.988150 25.125025 -1.091462 -19.972253 0.563009 -26.376626 14.890176 7.420205 13.014722 -1.507354 -0.000002 0.000000 0.000001 7.288799 -6.921446 36.711249 5.787267 -6.557102 89.986048 1.527399 -4.199784 56.404768 0.000003 -0.000003 -0.000001 0.284273 -7.114671 30.197670 4.295356 -6.454332 76.373693 4.146807 -5.608344 74.012654 -0.000000 0.000000 -0.000001 9.218579 -12.946208 70.283610 5.636017 -5.495802 83.857811 1.735866 -3.782572 60.323541 0.000001 -0.000001 -0.000000 14.914915 -25.746555 81.347478 5.103943 -6.031743 88.576871 0.814306 -4.691531 64.674836 -0.000001 0.000000 -0.000002 -16.687049 5.567752 -11.689344 18.343190 4.948804 -3.672264 -10.893114 2.539740 2.402022 0.414850 0.000006 -0.000001 0.000000 -0.000002 0.000000 -10.556681 -10.280377 -17.929130 26.526612 -8.276684 -2.475352 -20.558395 -4.361992 15.116095 -6.867853 0.000000 -0.000000 0.000000 0.000000 -0.000000 
